<svg xmlns="http://www.w3.org/2000/svg" width="247" height="415" viewBox="0 0 247 415" fill="none" class="injected-svg" data-src="/images/mvimg.svg" xmlns:xlink="http://www.w3.org/1999/xlink">
<g id="Frame" opacity="0.9">
<g id="Main">

<g id="bubble-col">
<path id="Vector_15-7" opacity="0.2" d="M179.616 0H67.3841V291.829C67.3841 292.954 68.0602 294.306 69.6378 295.206L117.19 322.678C120.57 324.704 126.43 324.479 130.486 322.227L176.235 295.882C178.264 294.756 179.39 293.18 179.39 291.829V0H179.616Z" fill="url(#paint5_linear_2_35-6)"></path>

<g id="base">
<path id="Vector-8" opacity="0.6" d="M112.006 400.814L23.6633 349.924C17.3531 346.321 18.2546 340.016 25.4662 335.738L110.429 286.875C117.641 282.596 128.683 282.146 134.994 285.749L223.111 336.639C229.422 340.241 228.52 346.546 221.308 350.825L136.571 399.688C129.359 403.966 118.317 404.417 112.006 400.814Z" fill="#0C0F38"></path>
<path id="Vector_2-9" d="M122.599 415C117.641 415 113.133 414.099 109.527 412.073L5.40876 351.951C1.80292 349.924 0 346.997 0 343.844C0 340.016 2.70438 336.413 7.66241 333.486L107.499 275.841C116.288 270.662 129.81 270.212 137.473 274.715L241.591 334.837C245.197 336.864 247 339.791 247 342.944C247 346.772 244.296 350.374 239.338 353.302L139.501 410.947C134.768 413.424 128.458 415 122.599 415ZM110.654 410.046C117.866 414.099 130.261 413.649 138.374 408.92L238.211 351.275C242.267 348.798 244.746 345.871 244.746 342.718C244.746 340.241 243.169 337.99 240.239 336.413L136.12 276.291C129.134 272.238 116.514 272.689 108.401 277.417L8.56387 335.288C4.5073 337.764 2.02828 340.692 2.02828 343.844C2.02828 346.321 3.60584 348.573 6.53558 350.149L110.654 410.046Z" fill="url(#paint0_linear_2_35-1)"></path>
<path id="Vector_3-10" d="M227.393 291.603H183.672L134.768 263.456C128.458 259.853 117.415 260.304 110.203 264.582L63.1022 291.603H19.6068V320.876C19.3814 323.353 20.7336 325.605 23.8887 327.406L112.232 378.296C118.542 381.899 129.585 381.449 136.797 377.17L221.534 328.307C225.365 326.055 227.393 323.353 227.393 320.651V291.603Z" fill="url(#paint1_linear_2_35-2)"></path>
<path id="Vector_4-11" d="M221.308 326.506L136.571 375.369C129.359 379.647 118.317 380.098 112.006 376.495L23.6633 325.605C20.7336 323.804 19.3814 321.552 19.3814 319.075V321.101C19.156 323.578 20.5082 325.83 23.6633 327.632L112.006 378.521C118.317 382.124 129.359 381.674 136.571 377.396L221.308 328.532C225.14 326.281 227.168 323.578 227.168 320.876V318.85C227.168 321.552 225.14 324.254 221.308 326.506Z" fill="url(#paint2_linear_2_35-3)"></path>
<path id="Vector_5-12" d="M22.3111 322.903V293.63H66.0319L113.133 266.609C120.345 262.33 131.388 261.88 137.698 265.483L186.377 293.63H227.393V291.603H183.672L134.768 263.456C128.458 259.853 117.415 260.304 110.203 264.582L63.1022 291.603H19.6068V320.876C19.3814 323.353 20.7336 325.605 23.8887 327.406L24.3394 327.632C22.7619 326.281 22.3111 324.704 22.3111 322.903Z" fill="#D4088C"></path>
<path id="Vector_6-13" d="M224.914 293.855V323.128C224.914 324.704 224.013 326.055 222.886 327.632C225.816 325.605 227.393 323.353 227.393 320.876V291.829C226.492 292.504 225.59 293.18 224.914 293.855Z" fill="#6EE8FC"></path>
<path id="Vector_7-14" d="M112.006 349.023L23.6633 298.133C17.3531 294.531 18.2546 288.226 25.4662 283.947L110.429 235.084C117.641 230.806 128.683 230.355 134.994 233.958L223.111 285.073C229.422 288.676 228.52 294.981 221.308 299.259L136.571 348.123C129.359 352.176 118.317 352.626 112.006 349.023Z" fill="url(#paint3_linear_2_35-4)"></path>
<path id="Vector_8-15" d="M223.111 285.073L134.768 234.183C131.613 232.382 127.106 231.481 122.373 231.706C125.754 231.932 128.909 232.607 131.388 234.183L219.731 285.073C226.041 288.676 225.14 294.981 217.928 299.259L133.191 348.123C129.585 350.149 125.303 351.275 121.021 351.5C126.43 351.725 132.064 350.6 136.571 348.123L221.308 299.259C228.745 294.981 229.422 288.676 223.111 285.073Z" fill="#6EE8FC"></path>
<path id="Vector_9-16" d="M114.936 334.387L49.1296 296.557C44.3969 293.855 45.073 289.126 50.4818 285.974L113.584 249.495C118.993 246.343 127.106 246.118 131.839 248.82L197.645 286.649C202.378 289.352 201.702 294.08 196.293 297.233L133.191 333.711C127.782 336.864 119.669 337.089 114.936 334.387Z" fill="url(#paint4_linear_2_35-5)"></path>
<path id="Vector_10-17" d="M117.415 322.678L69.8631 295.206C66.4827 293.18 66.9334 289.802 70.7646 287.55L116.288 261.205C120.12 258.953 126.204 258.728 129.585 260.754L177.137 288.226C180.517 290.252 180.067 293.63 176.235 295.882L130.486 322.002C126.655 324.254 120.796 324.479 117.415 322.678Z" fill="#6DE0F6"></path>
<path id="Vector_11-18" d="M116.063 349.023L27.7199 298.133C21.4097 294.531 22.3111 288.226 29.5228 283.947L114.26 235.084C117.641 233.058 121.922 231.932 126.204 231.706C120.796 231.256 114.936 232.382 110.203 235.084L25.4662 283.947C18.2546 288.226 17.3531 294.531 23.6633 298.133L112.006 349.023C115.387 350.825 119.894 351.725 124.627 351.5C121.472 351.275 118.317 350.374 116.063 349.023Z" fill="#D4088C"></path>
<path id="Vector_12-19" d="M70.5392 291.153L116.288 264.807C120.12 262.556 126.204 262.33 129.585 264.357L177.137 291.829C177.813 292.279 178.489 292.729 178.714 293.405C179.841 291.603 179.391 289.577 177.137 288.226L129.585 260.754C126.204 258.728 120.345 258.953 116.288 261.205L70.5392 287.55C67.3841 289.352 66.4827 291.829 67.8349 293.63C68.5109 292.729 69.4124 291.829 70.5392 291.153Z" fill="#267FE5"></path>
<path id="Vector_13-20" d="M70.5392 295.657L116.288 269.311C120.12 267.059 126.204 266.834 129.585 268.861L177.137 296.332C177.813 296.782 178.264 297.008 178.489 297.458C180.067 295.431 179.616 293.18 177.137 291.829L129.585 264.357C126.204 262.33 120.345 262.556 116.288 264.807L70.5392 291.153C67.3841 292.954 66.4827 295.657 68.2856 297.683C68.7363 297.008 69.6378 296.332 70.5392 295.657Z" fill="#25BFEC"></path>
<path id="Vector_14-21" d="M68.7363 302.637C69.187 302.187 69.8631 301.511 70.5392 301.061L116.288 274.715C120.12 272.463 126.204 272.238 129.585 274.265L177.362 301.736C177.813 301.961 178.038 302.187 178.264 302.412C180.292 300.385 180.067 297.908 177.362 296.332L129.81 268.861C126.43 266.834 120.57 267.059 116.514 269.311L70.7646 295.657C67.1588 297.683 66.4827 300.61 68.7363 302.637Z" fill="#18D0F7"></path>
</g>

<g id="bubbles">
<path id="Vector_16-22" d="M134.092 200.182C134.092 201.758 132.74 203.109 131.162 203.109C129.585 203.109 128.233 201.758 128.233 200.182C128.233 198.606 129.585 197.254 131.162 197.254C132.965 197.029 134.092 198.38 134.092 200.182Z" fill="#6DE0F6"></path>
<path id="Vector_17-23" d="M115.387 181.717C116.507 181.717 117.415 180.81 117.415 179.691C117.415 178.571 116.507 177.664 115.387 177.664C114.267 177.664 113.359 178.571 113.359 179.691C113.359 180.81 114.267 181.717 115.387 181.717Z" fill="#6DE0F6"></path>
<path id="Vector_18-24" d="M133.191 156.948C133.191 159.65 130.937 161.902 128.233 161.902C125.528 161.902 123.275 159.65 123.275 156.948C123.275 154.246 125.528 151.994 128.233 151.994C130.937 151.994 133.191 154.246 133.191 156.948Z" fill="#6DE0F6"></path>
<path id="Vector_19-25" d="M116.739 120.244C116.739 121.37 115.838 122.496 114.485 122.496C113.359 122.496 112.232 121.595 112.232 120.244C112.232 118.893 113.133 117.992 114.485 117.992C115.612 118.218 116.739 119.118 116.739 120.244Z" fill="#6DE0F6"></path>
<path id="Vector_20-26" d="M133.191 223.375C134.435 223.375 135.444 222.367 135.444 221.123C135.444 219.88 134.435 218.871 133.191 218.871C131.946 218.871 130.937 219.88 130.937 221.123C130.937 222.367 131.946 223.375 133.191 223.375Z" fill="#6DE0F6"></path>
<path id="Vector_21-27" d="M132.515 91.4216C132.515 92.3223 131.839 92.9978 130.937 92.9978C130.036 92.9978 129.359 92.3223 129.359 91.4216C129.359 90.5209 130.036 89.8454 130.937 89.8454C131.839 89.8454 132.515 90.5209 132.515 91.4216Z" fill="#6DE0F6"></path>
<path id="Vector_22-28" d="M115.387 71.6061C115.76 71.6061 116.063 71.3036 116.063 70.9306C116.063 70.5575 115.76 70.255 115.387 70.255C115.013 70.255 114.711 70.5575 114.711 70.9306C114.711 71.3036 115.013 71.6061 115.387 71.6061Z" fill="#6DE0F6"></path>
<path id="Vector_23-29" d="M116.739 194.102C119.228 194.102 121.246 192.086 121.246 189.598C121.246 187.111 119.228 185.095 116.739 185.095C114.25 185.095 112.232 187.111 112.232 189.598C112.232 192.086 114.25 194.102 116.739 194.102Z" fill="#6DE0F6"></path>
<path id="Vector_24-30" d="M116.739 134.43C116.739 135.556 115.838 136.682 114.485 136.682C113.359 136.682 112.232 135.781 112.232 134.43C112.232 133.079 113.133 132.179 114.485 132.179C115.612 132.404 116.739 133.304 116.739 134.43Z" fill="#6DE0F6"></path>
<path id="Vector_25-31" d="M120.345 126.774C120.345 127.225 119.894 127.675 119.443 127.675C118.993 127.675 118.542 127.225 118.542 126.774C118.542 126.324 118.993 125.874 119.443 125.874C119.894 126.099 120.345 126.324 120.345 126.774Z" fill="#6DE0F6"></path>
<path id="Vector_26-32" d="M129.585 166.18C129.585 167.306 128.683 167.982 127.782 167.982C126.655 167.982 125.979 167.081 125.979 166.18C125.979 165.054 126.88 164.379 127.782 164.379C128.683 164.154 129.585 165.054 129.585 166.18Z" fill="#6DE0F6"></path>
</g>
</g>


</g>
</g>
<defs>
<linearGradient id="paint0_linear_2_35-1" x1="112.342" y1="273.066" x2="134.566" y2="413.497" gradientUnits="userSpaceOnUse">
<stop stop-color="#6EE8FC"></stop>
<stop offset="0.2204" stop-color="#6EE8FC"></stop>
<stop offset="0.4892" stop-color="#6EE1F8"></stop>
<stop offset="0.7742" stop-color="#D4088C"></stop>
<stop offset="1" stop-color="#D4088C"></stop>
</linearGradient>
<linearGradient id="paint1_linear_2_35-2" x1="-0.108785" y1="320.974" x2="253.126" y2="320.974" gradientUnits="userSpaceOnUse">
<stop stop-color="#A31FA9"></stop>
<stop offset="0.0667915" stop-color="#8B17A0"></stop>
<stop offset="0.1494" stop-color="#740F98"></stop>
<stop offset="0.2393" stop-color="#640A92"></stop>
<stop offset="0.3408" stop-color="#5B078F"></stop>
<stop offset="0.4785" stop-color="#58068E"></stop>
<stop offset="0.6264" stop-color="#4D22A3"></stop>
<stop offset="0.9436" stop-color="#3168DA"></stop>
<stop offset="1" stop-color="#2C75E4"></stop>
</linearGradient>
<linearGradient id="paint2_linear_2_35-3" x1="-0.10875" y1="349.938" x2="253.126" y2="349.938" gradientUnits="userSpaceOnUse">
<stop stop-color="#D4088C"></stop>
<stop offset="0.2258" stop-color="#D4088C"></stop>
<stop offset="0.5108" stop-color="#6EE1F8"></stop>
<stop offset="0.7796" stop-color="#6EE8FC"></stop>
<stop offset="1" stop-color="#6EE8FC"></stop>
</linearGradient>
<linearGradient id="paint3_linear_2_35-4" x1="17.8474" y1="291.596" x2="212.783" y2="339.872" gradientUnits="userSpaceOnUse">
<stop stop-color="#8D139B"></stop>
<stop offset="0.1651" stop-color="#851BA1"></stop>
<stop offset="0.4284" stop-color="#6E33B2"></stop>
<stop offset="0.7551" stop-color="#4958CD"></stop>
<stop offset="1" stop-color="#2979E4"></stop>
</linearGradient>
<linearGradient id="paint4_linear_2_35-5" x1="44.8347" y1="291.595" x2="189.964" y2="327.537" gradientUnits="userSpaceOnUse">
<stop stop-color="#630692"></stop>
<stop offset="0.2262" stop-color="#5B0E94"></stop>
<stop offset="0.587" stop-color="#432399"></stop>
<stop offset="1" stop-color="#2142A1"></stop>
</linearGradient>
<linearGradient id="paint5_linear_2_35-6" x1="123.472" y1="323.931" x2="123.472" y2="0" gradientUnits="userSpaceOnUse">
<stop offset="0.0107527" stop-color="#25BFEC"></stop>
<stop offset="0.0453451" stop-color="#24B4E1"></stop>
<stop offset="0.2186" stop-color="#1F83B0"></stop>
<stop offset="0.3902" stop-color="#1B5A86"></stop>
<stop offset="0.5567" stop-color="#173A66"></stop>
<stop offset="0.7168" stop-color="#152350"></stop>
<stop offset="0.8678" stop-color="#131642"></stop>
<stop offset="1" stop-color="#13113D"></stop>
</linearGradient>
</defs>
</svg>